<?xml version="1.0" encoding="UTF-8"?>
<svg xmlns="http://www.w3.org/2000/svg" xmlns:xlink="http://www.w3.org/1999/xlink" width="0" height="0" style="display:none">
<symbol id="box" viewBox="0 0 24 24" fill="none" stroke="currentColor" stroke-width="2" stroke-linecap="round" stroke-linejoin="round"><!-- @license lucide-static v1.22.0 - ISC -->

  <path d="M21 8a2 2 0 0 0-1-1.73l-7-4a2 2 0 0 0-2 0l-7 4A2 2 0 0 0 3 8v8a2 2 0 0 0 1 1.73l7 4a2 2 0 0 0 2 0l7-4A2 2 0 0 0 21 16Z" />
  <path d="m3.3 7 8.7 5 8.7-5" />
  <path d="M12 22V12" />

</symbol> <symbol id="building" viewBox="0 0 24 24" fill="none" stroke="currentColor" stroke-width="2" stroke-linecap="round" stroke-linejoin="round"><!-- @license lucide-static v1.22.0 - ISC -->

  <path d="M12 10h.01" />
  <path d="M12 14h.01" />
  <path d="M12 6h.01" />
  <path d="M16 10h.01" />
  <path d="M16 14h.01" />
  <path d="M16 6h.01" />
  <path d="M8 10h.01" />
  <path d="M8 14h.01" />
  <path d="M8 6h.01" />
  <path d="M9 22v-3a1 1 0 0 1 1-1h4a1 1 0 0 1 1 1v3" />
  <rect x="4" y="2" width="16" height="20" rx="2" />

</symbol> <symbol id="check" viewBox="0 0 24 24" fill="none" stroke="currentColor" stroke-width="2" stroke-linecap="round" stroke-linejoin="round"><!-- @license lucide-static v1.22.0 - ISC -->

  <path d="M20 6 9 17l-5-5" />

</symbol> <symbol id="clipboard-list" viewBox="0 0 24 24" fill="none" stroke="currentColor" stroke-width="2" stroke-linecap="round" stroke-linejoin="round"><!-- @license lucide-static v1.22.0 - ISC -->

  <rect width="8" height="4" x="8" y="2" rx="1" ry="1" />
  <path d="M16 4h2a2 2 0 0 1 2 2v14a2 2 0 0 1-2 2H6a2 2 0 0 1-2-2V6a2 2 0 0 1 2-2h2" />
  <path d="M12 11h4" />
  <path d="M12 16h4" />
  <path d="M8 11h.01" />
  <path d="M8 16h.01" />

</symbol> <symbol id="columns" viewBox="0 0 24 24" fill="none" stroke="currentColor" stroke-width="2" stroke-linecap="round" stroke-linejoin="round"><!-- @license lucide-static v1.22.0 - ISC -->

  <rect width="18" height="18" x="3" y="3" rx="2" />
  <path d="M12 3v18" />

</symbol> <symbol id="compass" viewBox="0 0 24 24" fill="none" stroke="currentColor" stroke-width="2" stroke-linecap="round" stroke-linejoin="round"><!-- @license lucide-static v1.22.0 - ISC -->

  <circle cx="12" cy="12" r="10" />
  <path d="m16.24 7.76-1.804 5.411a2 2 0 0 1-1.265 1.265L7.76 16.24l1.804-5.411a2 2 0 0 1 1.265-1.265z" />

</symbol> <symbol id="crosshair" viewBox="0 0 24 24" fill="none" stroke="currentColor" stroke-width="2" stroke-linecap="round" stroke-linejoin="round"><!-- @license lucide-static v1.22.0 - ISC -->

  <circle cx="12" cy="12" r="10" />
  <line x1="22" x2="18" y1="12" y2="12" />
  <line x1="6" x2="2" y1="12" y2="12" />
  <line x1="12" x2="12" y1="6" y2="2" />
  <line x1="12" x2="12" y1="22" y2="18" />

</symbol> <symbol id="database" viewBox="0 0 24 24" fill="none" stroke="currentColor" stroke-width="2" stroke-linecap="round" stroke-linejoin="round"><!-- @license lucide-static v1.22.0 - ISC -->

  <ellipse cx="12" cy="5" rx="9" ry="3" />
  <path d="M3 5V19A9 3 0 0 0 21 19V5" />
  <path d="M3 12A9 3 0 0 0 21 12" />

</symbol> <symbol id="factory" viewBox="0 0 24 24" fill="none" stroke="currentColor" stroke-width="2" stroke-linecap="round" stroke-linejoin="round"><!-- @license lucide-static v1.22.0 - ISC -->

  <path d="M12 16h.01" />
  <path d="M16 16h.01" />
  <path d="M3 19a2 2 0 0 0 2 2h14a2 2 0 0 0 2-2V8.5a.5.5 0 0 0-.769-.422l-4.462 2.844A.5.5 0 0 1 15 10.5v-2a.5.5 0 0 0-.769-.422L9.77 10.922A.5.5 0 0 1 9 10.5V5a2 2 0 0 0-2-2H5a2 2 0 0 0-2 2z" />
  <path d="M8 16h.01" />

</symbol> <symbol id="file-text" viewBox="0 0 24 24" fill="none" stroke="currentColor" stroke-width="2" stroke-linecap="round" stroke-linejoin="round"><!-- @license lucide-static v1.22.0 - ISC -->

  <path d="M6 22a2 2 0 0 1-2-2V4a2 2 0 0 1 2-2h8a2.4 2.4 0 0 1 1.704.706l3.588 3.588A2.4 2.4 0 0 1 20 8v12a2 2 0 0 1-2 2z" />
  <path d="M14 2v5a1 1 0 0 0 1 1h5" />
  <path d="M10 9H8" />
  <path d="M16 13H8" />
  <path d="M16 17H8" />

</symbol> <symbol id="grid-3x3" viewBox="0 0 24 24" fill="none" stroke="currentColor" stroke-width="2" stroke-linecap="round" stroke-linejoin="round"><!-- @license lucide-static v1.22.0 - ISC -->

  <rect width="18" height="18" x="3" y="3" rx="2" />
  <path d="M3 9h18" />
  <path d="M3 15h18" />
  <path d="M9 3v18" />
  <path d="M15 3v18" />

</symbol> <symbol id="hard-hat" viewBox="0 0 24 24" fill="none" stroke="currentColor" stroke-width="2" stroke-linecap="round" stroke-linejoin="round"><!-- @license lucide-static v1.22.0 - ISC -->

  <path d="M10 10V5a1 1 0 0 1 1-1h2a1 1 0 0 1 1 1v5" />
  <path d="M14 6a6 6 0 0 1 6 6v3" />
  <path d="M4 15v-3a6 6 0 0 1 6-6" />
  <rect x="2" y="15" width="20" height="4" rx="1" />

</symbol> <symbol id="lock" viewBox="0 0 24 24" fill="none" stroke="currentColor" stroke-width="2" stroke-linecap="round" stroke-linejoin="round"><!-- @license lucide-static v1.22.0 - ISC -->

  <rect width="18" height="11" x="3" y="11" rx="2" ry="2" />
  <path d="M7 11V7a5 5 0 0 1 10 0v4" />

</symbol> <symbol id="map" viewBox="0 0 24 24" fill="none" stroke="currentColor" stroke-width="2" stroke-linecap="round" stroke-linejoin="round"><!-- @license lucide-static v1.22.0 - ISC -->

  <path d="M14.106 5.553a2 2 0 0 0 1.788 0l3.659-1.83A1 1 0 0 1 21 4.619v12.764a1 1 0 0 1-.553.894l-4.553 2.277a2 2 0 0 1-1.788 0l-4.212-2.106a2 2 0 0 0-1.788 0l-3.659 1.83A1 1 0 0 1 3 19.381V6.618a1 1 0 0 1 .553-.894l4.553-2.277a2 2 0 0 1 1.788 0z" />
  <path d="M15 5.764v15" />
  <path d="M9 3.236v15" />

</symbol> <symbol id="map-pin" viewBox="0 0 24 24" fill="none" stroke="currentColor" stroke-width="2" stroke-linecap="round" stroke-linejoin="round"><!-- @license lucide-static v1.22.0 - ISC -->

  <path d="M20 10c0 4.993-5.539 10.193-7.399 11.799a1 1 0 0 1-1.202 0C9.539 20.193 4 14.993 4 10a8 8 0 0 1 16 0" />
  <circle cx="12" cy="10" r="3" />

</symbol> <symbol id="mountain" viewBox="0 0 24 24" fill="none" stroke="currentColor" stroke-width="2" stroke-linecap="round" stroke-linejoin="round"><!-- @license lucide-static v1.22.0 - ISC -->

  <path d="m8 3 4 8 5-5 5 15H2L8 3z" />

</symbol> <symbol id="refresh-cw" viewBox="0 0 24 24" fill="none" stroke="currentColor" stroke-width="2" stroke-linecap="round" stroke-linejoin="round"><!-- @license lucide-static v1.22.0 - ISC -->

  <path d="M3 12a9 9 0 0 1 9-9 9.75 9.75 0 0 1 6.74 2.74L21 8" />
  <path d="M21 3v5h-5" />
  <path d="M21 12a9 9 0 0 1-9 9 9.75 9.75 0 0 1-6.74-2.74L3 16" />
  <path d="M8 16H3v5" />

</symbol> <symbol id="ruler" viewBox="0 0 24 24" fill="none" stroke="currentColor" stroke-width="2" stroke-linecap="round" stroke-linejoin="round"><!-- @license lucide-static v1.22.0 - ISC -->

  <path d="M21.3 15.3a2.4 2.4 0 0 1 0 3.4l-2.6 2.6a2.4 2.4 0 0 1-3.4 0L2.7 8.7a2.41 2.41 0 0 1 0-3.4l2.6-2.6a2.41 2.41 0 0 1 3.4 0Z" />
  <path d="m14.5 12.5 2-2" />
  <path d="m11.5 9.5 2-2" />
  <path d="m8.5 6.5 2-2" />
  <path d="m17.5 15.5 2-2" />

</symbol> <symbol id="satellite" viewBox="0 0 24 24" fill="none" stroke="currentColor" stroke-width="2" stroke-linecap="round" stroke-linejoin="round"><!-- @license lucide-static v1.22.0 - ISC -->

  <path d="m13.5 6.5-3.148-3.148a1.205 1.205 0 0 0-1.704 0L6.352 5.648a1.205 1.205 0 0 0 0 1.704L9.5 10.5" />
  <path d="M16.5 7.5 19 5" />
  <path d="m17.5 10.5 3.148 3.148a1.205 1.205 0 0 1 0 1.704l-2.296 2.296a1.205 1.205 0 0 1-1.704 0L13.5 14.5" />
  <path d="M9 21a6 6 0 0 0-6-6" />
  <path d="M9.352 10.648a1.205 1.205 0 0 0 0 1.704l2.296 2.296a1.205 1.205 0 0 0 1.704 0l4.296-4.296a1.205 1.205 0 0 0 0-1.704l-2.296-2.296a1.205 1.205 0 0 0-1.704 0z" />

</symbol> <symbol id="scroll-text" viewBox="0 0 24 24" fill="none" stroke="currentColor" stroke-width="2" stroke-linecap="round" stroke-linejoin="round"><!-- @license lucide-static v1.22.0 - ISC -->

  <path d="M15 12h-5" />
  <path d="M15 8h-5" />
  <path d="M19 17V5a2 2 0 0 0-2-2H4" />
  <path d="M8 21h12a2 2 0 0 0 2-2v-1a1 1 0 0 0-1-1H11a1 1 0 0 0-1 1v1a2 2 0 1 1-4 0V5a2 2 0 1 0-4 0v2a1 1 0 0 0 1 1h3" />

</symbol> <symbol id="search" viewBox="0 0 24 24" fill="none" stroke="currentColor" stroke-width="2" stroke-linecap="round" stroke-linejoin="round"><!-- @license lucide-static v1.22.0 - ISC -->

  <path d="m21 21-4.34-4.34" />
  <circle cx="11" cy="11" r="8" />

</symbol> <symbol id="shield" viewBox="0 0 24 24" fill="none" stroke="currentColor" stroke-width="2" stroke-linecap="round" stroke-linejoin="round"><!-- @license lucide-static v1.22.0 - ISC -->

  <path d="M20 13c0 5-3.5 7.5-7.66 8.95a1 1 0 0 1-.67-.01C7.5 20.5 4 18 4 13V6a1 1 0 0 1 1-1c2 0 4.5-1.2 6.24-2.72a1.17 1.17 0 0 1 1.52 0C14.51 3.81 17 5 19 5a1 1 0 0 1 1 1z" />

</symbol> <symbol id="sunrise" viewBox="0 0 24 24" fill="none" stroke="currentColor" stroke-width="2" stroke-linecap="round" stroke-linejoin="round"><!-- @license lucide-static v1.22.0 - ISC -->

  <path d="M12 2v8" />
  <path d="m4.93 10.93 1.41 1.41" />
  <path d="M2 18h2" />
  <path d="M20 18h2" />
  <path d="m19.07 10.93-1.41 1.41" />
  <path d="M22 22H2" />
  <path d="m8 6 4-4 4 4" />
  <path d="M16 18a4 4 0 0 0-8 0" />

</symbol> <symbol id="telegram" viewBox="0 0 24 24" fill="none" stroke="currentColor" stroke-width="2" stroke-linecap="round" stroke-linejoin="round"><path d="M11.944 0A12 12 0 0 0 0 12a12 12 0 0 0 12 12 12 12 0 0 0 12-12A12 12 0 0 0 12 0a12 12 0 0 0-.056 0zm4.962 7.224c.1-.002.321.023.465.14a.506.506 0 0 1 .171.325c.016.093.036.306.02.472-.18 1.898-.962 6.502-1.36 8.627-.168.9-.499 1.201-.82 1.23-.696.065-1.225-.46-1.9-.902-1.056-.693-1.653-1.124-2.678-1.8-1.185-.78-.417-1.21.258-1.91.177-.184 3.247-2.977 3.307-3.23.007-.032.014-.15-.056-.212s-.174-.041-.249-.024c-.106.024-1.793 1.14-5.061 3.345-.48.33-.913.49-1.302.48-.428-.008-1.252-.241-1.865-.44-.752-.245-1.349-.374-1.297-.789.027-.216.325-.437.893-.663 3.498-1.524 5.83-2.529 6.998-3.014 3.332-1.386 4.025-1.627 4.476-1.635z"/>
</symbol> <symbol id="train-track" viewBox="0 0 24 24" fill="none" stroke="currentColor" stroke-width="2" stroke-linecap="round" stroke-linejoin="round"><!-- @license lucide-static v1.22.0 - ISC -->

  <path d="M2 17 17 2" />
  <path d="m2 14 8 8" />
  <path d="m5 11 8 8" />
  <path d="m8 8 8 8" />
  <path d="m11 5 8 8" />
  <path d="m14 2 8 8" />
  <path d="M7 22 22 7" />

</symbol> <symbol id="tree-pine" viewBox="0 0 24 24" fill="none" stroke="currentColor" stroke-width="2" stroke-linecap="round" stroke-linejoin="round"><!-- @license lucide-static v1.22.0 - ISC -->

  <path d="m17 14 3 3.3a1 1 0 0 1-.7 1.7H4.7a1 1 0 0 1-.7-1.7L7 14h-.3a1 1 0 0 1-.7-1.7L9 9h-.2A1 1 0 0 1 8 7.3L12 3l4 4.3a1 1 0 0 1-.8 1.7H15l3 3.3a1 1 0 0 1-.7 1.7H17Z" />
  <path d="M12 22v-3" />

</symbol> <symbol id="triangle" viewBox="0 0 24 24" fill="none" stroke="currentColor" stroke-width="2" stroke-linecap="round" stroke-linejoin="round"><!-- @license lucide-static v1.22.0 - ISC -->

  <path d="M13.73 4a2 2 0 0 0-3.46 0l-8 14A2 2 0 0 0 4 21h16a2 2 0 0 0 1.73-3Z" />

</symbol> <symbol id="truck" viewBox="0 0 24 24" fill="none" stroke="currentColor" stroke-width="2" stroke-linecap="round" stroke-linejoin="round"><!-- @license lucide-static v1.22.0 - ISC -->

  <path d="M14 18V6a2 2 0 0 0-2-2H4a2 2 0 0 0-2 2v11a1 1 0 0 0 1 1h2" />
  <path d="M15 18H9" />
  <path d="M19 18h2a1 1 0 0 0 1-1v-3.65a1 1 0 0 0-.22-.624l-3.48-4.35A1 1 0 0 0 17.52 8H14" />
  <circle cx="17" cy="18" r="2" />
  <circle cx="7" cy="18" r="2" />
</symbol> <symbol id="vk" viewBox="0 0 24 24" fill="none" stroke="currentColor" stroke-width="2" stroke-linecap="round" stroke-linejoin="round"><path d="M12.075 23.62h.192c.86 0 1.028-.496 1.028-.893.003-.823-.009-.95-.62-1.535-.328-.309-.646-.626-.908-.945a4.38 4.38 0 0 1-.3-.381c-.17-.241-.087-.54.021-.678.464-.588 1.56-1.89 2.104-2.716.226-.344.327-.53.358-.764.031-.234-.033-.504-.285-.677-.24-.167-.68-.15-.92-.138-.238.012-.502.032-.718.02-.283-.016-.556-.108-.778-.322-.135-.13-.172-.27-.06-.53.028-.066.087-.16.16-.282.252-.438.664-1.028.936-1.548.3-.574.208-.89.106-1.004-.103-.113-.366-.161-.55-.164-.188-.003-.383.044-.542.092-.155.047-.426.12-.708.078-.36-.054-.662-.39-.826-.637-.308-.464-.629-1.044-.83-1.647-.2-.603-.302-.993-.012-1.155.29-.161.707-.088.942-.042.268.053.528.151.769.18.27.033.558.016.764-.096.17-.092.27-.36.278-.66.006-.3-.075-.68-.16-1.004-.066-.253-.18-.592-.253-.86-.074-.269-.088-.541.054-.68.142-.14.376-.144.602-.147.338-.003.7.009.99.17.276.154.455.448.578.709.207.438.374.944.532 1.398.07.198.143.408.222.606.3.745.593 1.315.883 1.668.103.125.196.215.375.224.153.008.457-.02.742-.052.196-.022.353-.089.477-.172.126-.083.194-.277.183-.462-.012-.185-.086-.44-.147-.677-.1-.386-.24-.943-.256-1.378-.015-.435.018-.768.082-1.003.064-.235.243-.372.42-.418l.193-.05c.447-.1.856.006 1.119.252.312.293.457.685.513 1.018.056.333.073.647.057.833-.016.186-.023.41.003.583.027.173.059.34.043.552-.016.21-.041.411-.018.632.023.22.049.42.09.563.041.143.13.222.193.272.063.05.084.052.116.028.033-.024.062-.08.101-.215.038-.136.089-.355.153-.653.064-.298.092-.62.085-.943-.008-.323.006-.64-.082-.922-.088-.282-.267-.537-.467-.72-.2-.184-.477-.304-.722-.374-.245-.07-.638-.134-.984-.147-.347-.013-.733.004-1.002.069-.268.065-.536.15-.75.281-.213.132-.388.299-.487.492-.1.193-.173.477-.202.773-.028.296-.031.614.013.922.044.308.112.615.22.883.107.268.26.5.471.674.024.02.035.037.02.058-.015.02-.034.024-.042.024-.022 0-.034.004-.055.003-.9.019-1.328-.578-1.701-1.142-.294-.446-.496-.95-.645-1.438-.075-.245-.12-.523-.143-.793-.022-.27-.023-.51.066-.685.09-.174.216-.28.349-.356.133-.076.277-.121.386-.192.11-.07.204-.185.258-.329.054-.144.08-.33.047-.522-.032-.193-.104-.416-.214-.607-.11-.191-.256-.352-.452-.47-.105-.063-.402-.215-.76-.263-.358-.048-.71.02-.94.087-.23.067-.687.226-.939.421-.252.195-.448.47-.543.722-.095.252-.045.473.052.679.2.424.449.826.675 1.195.156.255.378.548.514.778.136.23.145.409.152.462.006.053.003.11-.03.17-.033.06-.1.11-.172.14-.072.03-.196.054-.28.06-.083.006-.179.006-.278.015-.477.045-1.004-.057-1.521-.266-.517-.21-1.002-.53-1.386-.91-.384-.38-.584-.753-.603-.931-.02-.178.046-.235.07-.266.023-.031.154-.232.222-.348.068-.116.16-.28.174-.41.014-.131-.015-.27-.144-.385-.129-.115-.332-.196-.499-.244-.167-.048-.421-.088-.605-.114-.184-.026-.364-.035-.538-.018-.174.017-.303.053-.463.123-.16.07-.338.206-.443.355-.105.149-.191.338-.198.498-.007.16.014.338.075.513.06.175.145.346.277.52.132.174.277.337.464.492.187.155.385.297.594.43.42.267.898.493 1.264.685.366.192.665.35.834.51.169.16.22.283.22.437 0 .154-.057.327-.165.478l-.021.029c-.35.503-1.063.949-1.063.949s-.08.051-.196.118c-.388.227-1.06.62-1.394.878-.166.129-.319.262-.437.42-.118.157-.195.345-.18.504.015.16.065.315.1.407.036.092.11.192.189.24.078.048.147.073.283.053.136-.02.29-.065.443-.115.153-.05.344-.139.48-.194.136-.055.25-.075.295-.042.045.033.068.13.06.214-.008.084-.03.19-.031.297-.001.107-.004.195.023.281.027.086.068.147.136.174.068.027.21.024.28.019.07-.005.135-.007.221-.024.086-.017.17-.049.28-.093.11-.044.222-.111.384-.195.162-.084.34-.18.573-.315.233-.135.49-.3.768-.455.277-.155.636-.333.98-.445.343-.112.761-.213.999-.18.238.033.41.173.493.277.083.104.126.197.044.332-.082.135-.25.324-.404.487-.194.205-.427.407-.63.578-.203.17-.448.37-.606.48-.157.11-.278.233-.38.338-.103.105-.201.222-.262.355-.06.133-.09.278-.067.395.023.117.076.235.162.31.086.076.197.132.317.1507.12.019.277.02.422-.018.145-.039.33-.104.487-.174.156-.07.32-.187.44-.26.12-.074.197-.12.208-.109.011.011.003.032-.011.073-.014.041-.061.115-.1.175-.04.06-.094.14-.133.21-.04.07-.08.17-.07.244.01.074.036.139.107.183.07.044.142.05.25.04.108-.01.234-.059.347-.111.113-.052.243-.16.315-.227.072-.067.107-.13.107-.13s.008-.015.022-.02c.014-.005.031 0 .031 0s-.008.117.032.217c.04.1.1.181.18.225.08.044.225.053.341.024.116-.029.25-.108.394-.202.145-.094.302-.222.485-.356.183-.134.365-.267.528-.382.163-.115.327-.264.43-.376.102-.112.21-.255.24-.349.03-.094.09-.145.106-.173.016-.028.063-.07.079-.072.016-.002.029-.001.038.009.009.01.018.02.018.048 0 .028-.013.075-.013.075s-.006.091.01.15c.016.059.065.14.097.175.032.035.061.051.12.054.059.003.115-.01.16-.034.045-.024.102-.062.158-.095.056-.033.13-.088.184-.128.054-.04.133-.11.164-.139z"/>
</symbol> <symbol id="whatsapp" viewBox="0 0 24 24" fill="none" stroke="currentColor" stroke-width="2" stroke-linecap="round" stroke-linejoin="round"><path d="M17.472 14.382c-.297-.149-1.758-.867-2.03-.967-.273-.099-.471-.148-.67.15-.197.297-.767.966-.94 1.164-.173.199-.347.223-.644.075-.297-.15-1.255-.463-2.39-1.475-.883-.788-1.48-1.761-1.653-2.059-.173-.297-.018-.458.13-.606.134-.133.298-.347.446-.52.149-.174.198-.298.298-.497.099-.198.05-.371-.025-.52-.075-.149-.669-1.612-.916-2.207-.242-.579-.487-.5-.669-.51-.173-.008-.371-.01-.57-.01-.198 0-.52.074-.792.372-.272.297-1.04 1.016-1.04 2.479 0 1.462 1.065 2.875 1.213 3.074.149.198 2.096 3.2 5.077 4.487.709.306 1.262.489 1.694.625.712.227 1.36.195 1.871.118.571-.085 1.758-.719 2.006-1.413.248-.694.248-1.289.173-1.413-.074-.124-.272-.198-.57-.347m-5.421 7.403h-.004a9.87 9.87 0 0 1-5.031-1.378l-.361-.214-3.741.982.998-3.648-.235-.374a9.86 9.86 0 0 1-1.51-5.26c.001-5.45 4.436-9.884 9.888-9.884 2.64 0 5.122 1.03 6.988 2.898a9.825 9.825 0 0 1 2.893 6.994c-.003 5.45-4.437 9.884-9.885 9.884m8.413-18.297A11.815 11.815 0 0 0 12.05 0C5.495 0 .16 5.335.157 11.892c0 2.096.547 4.142 1.588 5.945L.057 24l6.305-1.654a11.882 11.882 0 0 0 5.683 1.448h.005c6.554 0 11.89-5.335 11.893-11.893a11.821 11.821 0 0 0-3.48-8.413z"/>
</symbol>
</svg>