<svg xmlns="http://www.w3.org/2000/svg" viewBox="0 0 24 24" fill="currentColor"><path d="M12.075 23.62h.192c.86 0 1.028-.496 1.028-.893.003-.823-.009-.95-.62-1.535-.328-.309-.646-.626-.908-.945a4.38 4.38 0 0 1-.3-.381c-.17-.241-.087-.54.021-.678.464-.588 1.56-1.89 2.104-2.716.226-.344.327-.53.358-.764.031-.234-.033-.504-.285-.677-.24-.167-.68-.15-.92-.138-.238.012-.502.032-.718.02-.283-.016-.556-.108-.778-.322-.135-.13-.172-.27-.06-.53.028-.066.087-.16.16-.282.252-.438.664-1.028.936-1.548.3-.574.208-.89.106-1.004-.103-.113-.366-.161-.55-.164-.188-.003-.383.044-.542.092-.155.047-.426.12-.708.078-.36-.054-.662-.39-.826-.637-.308-.464-.629-1.044-.83-1.647-.2-.603-.302-.993-.012-1.155.29-.161.707-.088.942-.042.268.053.528.151.769.18.27.033.558.016.764-.096.17-.092.27-.36.278-.66.006-.3-.075-.68-.16-1.004-.066-.253-.18-.592-.253-.86-.074-.269-.088-.541.054-.68.142-.14.376-.144.602-.147.338-.003.7.009.99.17.276.154.455.448.578.709.207.438.374.944.532 1.398.07.198.143.408.222.606.3.745.593 1.315.883 1.668.103.125.196.215.375.224.153.008.457-.02.742-.052.196-.022.353-.089.477-.172.126-.083.194-.277.183-.462-.012-.185-.086-.44-.147-.677-.1-.386-.24-.943-.256-1.378-.015-.435.018-.768.082-1.003.064-.235.243-.372.42-.418l.193-.05c.447-.1.856.006 1.119.252.312.293.457.685.513 1.018.056.333.073.647.057.833-.016.186-.023.41.003.583.027.173.059.34.043.552-.016.21-.041.411-.018.632.023.22.049.42.09.563.041.143.13.222.193.272.063.05.084.052.116.028.033-.024.062-.08.101-.215.038-.136.089-.355.153-.653.064-.298.092-.62.085-.943-.008-.323.006-.64-.082-.922-.088-.282-.267-.537-.467-.72-.2-.184-.477-.304-.722-.374-.245-.07-.638-.134-.984-.147-.347-.013-.733.004-1.002.069-.268.065-.536.15-.75.281-.213.132-.388.299-.487.492-.1.193-.173.477-.202.773-.028.296-.031.614.013.922.044.308.112.615.22.883.107.268.26.5.471.674.024.02.035.037.02.058-.015.02-.034.024-.042.024-.022 0-.034.004-.055.003-.9.019-1.328-.578-1.701-1.142-.294-.446-.496-.95-.645-1.438-.075-.245-.12-.523-.143-.793-.022-.27-.023-.51.066-.685.09-.174.216-.28.349-.356.133-.076.277-.121.386-.192.11-.07.204-.185.258-.329.054-.144.08-.33.047-.522-.032-.193-.104-.416-.214-.607-.11-.191-.256-.352-.452-.47-.105-.063-.402-.215-.76-.263-.358-.048-.71.02-.94.087-.23.067-.687.226-.939.421-.252.195-.448.47-.543.722-.095.252-.045.473.052.679.2.424.449.826.675 1.195.156.255.378.548.514.778.136.23.145.409.152.462.006.053.003.11-.03.17-.033.06-.1.11-.172.14-.072.03-.196.054-.28.06-.083.006-.179.006-.278.015-.477.045-1.004-.057-1.521-.266-.517-.21-1.002-.53-1.386-.91-.384-.38-.584-.753-.603-.931-.02-.178.046-.235.07-.266.023-.031.154-.232.222-.348.068-.116.16-.28.174-.41.014-.131-.015-.27-.144-.385-.129-.115-.332-.196-.499-.244-.167-.048-.421-.088-.605-.114-.184-.026-.364-.035-.538-.018-.174.017-.303.053-.463.123-.16.07-.338.206-.443.355-.105.149-.191.338-.198.498-.007.16.014.338.075.513.06.175.145.346.277.52.132.174.277.337.464.492.187.155.385.297.594.43.42.267.898.493 1.264.685.366.192.665.35.834.51.169.16.22.283.22.437 0 .154-.057.327-.165.478l-.021.029c-.35.503-1.063.949-1.063.949s-.08.051-.196.118c-.388.227-1.06.62-1.394.878-.166.129-.319.262-.437.42-.118.157-.195.345-.18.504.015.16.065.315.1.407.036.092.11.192.189.24.078.048.147.073.283.053.136-.02.29-.065.443-.115.153-.05.344-.139.48-.194.136-.055.25-.075.295-.042.045.033.068.13.06.214-.008.084-.03.19-.031.297-.001.107-.004.195.023.281.027.086.068.147.136.174.068.027.21.024.28.019.07-.005.135-.007.221-.024.086-.017.17-.049.28-.093.11-.044.222-.111.384-.195.162-.084.34-.18.573-.315.233-.135.49-.3.768-.455.277-.155.636-.333.98-.445.343-.112.761-.213.999-.18.238.033.41.173.493.277.083.104.126.197.044.332-.082.135-.25.324-.404.487-.194.205-.427.407-.63.578-.203.17-.448.37-.606.48-.157.11-.278.233-.38.338-.103.105-.201.222-.262.355-.06.133-.09.278-.067.395.023.117.076.235.162.31.086.076.197.132.317.1507.12.019.277.02.422-.018.145-.039.33-.104.487-.174.156-.07.32-.187.44-.26.12-.074.197-.12.208-.109.011.011.003.032-.011.073-.014.041-.061.115-.1.175-.04.06-.094.14-.133.21-.04.07-.08.17-.07.244.01.074.036.139.107.183.07.044.142.05.25.04.108-.01.234-.059.347-.111.113-.052.243-.16.315-.227.072-.067.107-.13.107-.13s.008-.015.022-.02c.014-.005.031 0 .031 0s-.008.117.032.217c.04.1.1.181.18.225.08.044.225.053.341.024.116-.029.25-.108.394-.202.145-.094.302-.222.485-.356.183-.134.365-.267.528-.382.163-.115.327-.264.43-.376.102-.112.21-.255.24-.349.03-.094.09-.145.106-.173.016-.028.063-.07.079-.072.016-.002.029-.001.038.009.009.01.018.02.018.048 0 .028-.013.075-.013.075s-.006.091.01.15c.016.059.065.14.097.175.032.035.061.051.12.054.059.003.115-.01.16-.034.045-.024.102-.062.158-.095.056-.033.13-.088.184-.128.054-.04.133-.11.164-.139z"/></svg>
